<svg width="21" height="20" viewBox="0 0 21 20" fill="none" xmlns="http://www.w3.org/2000/svg">
<path d="M14.6754 13.467C14.6023 13.5452 14.6023 13.6235 14.6023 13.7017V18.1222H1.75228V4.35208H10.5502C10.6232 4.35208 10.6962 4.35208 10.7692 4.27384L11.9374 3.022C12.1199 2.82641 11.9739 2.47433 11.7184 2.47433H1.75228C0.766623 2.47433 0 3.33496 0 4.35208V18.1222C0 19.1785 0.766623 20 1.75228 20H14.6023C15.5515 20 16.3546 19.1785 16.3546 18.1222V12.4499C16.3546 12.176 16.0261 12.0196 15.8435 12.2152L14.6754 13.467ZM20.3703 5.60391C21.2099 4.70416 21.2099 3.25672 20.3703 2.35697L18.8005 0.674817C17.9609 -0.224939 16.6102 -0.224939 15.7705 0.674817L6.206 10.9242L5.84094 14.4841C5.73142 15.5012 6.53455 16.3619 7.4837 16.2445L10.8057 15.8533L20.3703 5.60391ZM16.7927 6.77751L10.0026 14.0538L7.59322 14.3667L7.88527 11.7848L14.6754 4.50856L16.7927 6.77751ZM19.1291 3.68704C19.3116 3.84352 19.3116 4.07824 19.1656 4.27384L18.0339 5.48655L15.9166 3.17848L17.0117 2.00489C17.1578 1.80929 17.4133 1.80929 17.5593 2.00489L19.1291 3.68704Z" fill="#828894"/>
</svg>
