<?xml version="1.0" encoding="UTF-8"?>
<svg version="1.1" xmlns="http://www.w3.org/2000/svg" width="16" height="20">
<path d="M0 0 C5.28 0 10.56 0 16 0 C15.67 1.65 15.34 3.3 15 5 C15.33 5.66 15.66 6.32 16 7 C16.56872038 14.0521327 16.56872038 14.0521327 14.5 17.5 C10.96411027 19.62153384 8.02098277 19.791013 4 19 C1.5 17.5 1.5 17.5 0 15 C-0.53600366 11.13922004 -0.23838748 7.71516243 1 4 C0.67 2.68 0.34 1.36 0 0 Z " fill="#F8C00C" transform="translate(0,0)"/>
<path d="M0 0 C1.32278481 5.41139241 1.32278481 5.41139241 -0.0625 7.9375 C-2.91093248 9.49954362 -4.93504903 8.74921024 -8 8 C-9.32278481 2.58860759 -9.32278481 2.58860759 -7.9375 0.0625 C-5.08906752 -1.49954362 -3.06495097 -0.74921024 0 0 Z " fill="#FEF5DD" transform="translate(12,7)"/>
<path d="M0 0 C5.28 0 10.56 0 16 0 C15.34 1.65 14.68 3.3 14 5 C13.38511719 4.91621094 12.77023437 4.83242187 12.13671875 4.74609375 C11.32847656 4.64425781 10.52023437 4.54242187 9.6875 4.4375 C8.88699219 4.33308594 8.08648437 4.22867187 7.26171875 4.12109375 C4.83182884 3.85244822 4.83182884 3.85244822 2 5 C1.34 3.35 0.68 1.7 0 0 Z " fill="#E08F00" transform="translate(0,0)"/>
<path d="M0 0 C0 1.65 0 3.3 0 5 C-1.98 5 -3.96 5 -6 5 C-6.33 3.35 -6.66 1.7 -7 0 C-3.86650268 -1.04449911 -3.01031744 -0.93423645 0 0 Z " fill="#F9C033" transform="translate(11,9)"/>
</svg>
