<svg width="20" height="21" viewBox="0 0 20 21" fill="none" xmlns="http://www.w3.org/2000/svg">
<path d="M11.9643 17.0625H13.0357C13.3036 17.0625 13.5714 16.8574 13.5714 16.5703V7.71094C13.5714 7.46484 13.3036 7.21875 13.0357 7.21875H11.9643C11.6518 7.21875 11.4286 7.46484 11.4286 7.71094V16.5703C11.4286 16.8574 11.6518 17.0625 11.9643 17.0625ZM19.2857 3.28125H15.5804L14.0625 0.984375C13.7054 0.451172 12.9018 0 12.2321 0H7.72321C7.05357 0 6.25 0.451172 5.89286 0.984375L4.375 3.28125H0.714286C0.3125 3.28125 0 3.60937 0 3.9375V4.59375C0 4.96289 0.3125 5.25 0.714286 5.25H1.42857V19.0312C1.42857 20.1387 2.36607 21 3.57143 21H16.4286C17.5893 21 18.5714 20.1387 18.5714 19.0312V5.25H19.2857C19.6429 5.25 20 4.96289 20 4.59375V3.9375C20 3.60937 19.6429 3.28125 19.2857 3.28125ZM7.63393 2.0918C7.67857 2.05078 7.8125 1.96875 7.85714 1.96875H7.90179H12.0982C12.1429 1.96875 12.2768 2.05078 12.3214 2.0918L13.0804 3.28125H6.875L7.63393 2.0918ZM16.4286 19.0312H3.57143V5.25H16.4286V19.0312ZM6.96429 17.0625H8.03571C8.30357 17.0625 8.57143 16.8574 8.57143 16.5703V7.71094C8.57143 7.46484 8.30357 7.21875 8.03571 7.21875H6.96429C6.65179 7.21875 6.42857 7.46484 6.42857 7.71094V16.5703C6.42857 16.8574 6.65179 17.0625 6.96429 17.0625Z" fill="#828894"/>
</svg>
